# xmcd
#
# Track frame offsets:
#	150
#	11610
#	31002
#	51810
#	69778
#	89475
#	106593
#	123156
#	139701
#	150505
#	167401
#	182575
#	198666
#	216525
#	241287
#	264525
#
# Disc length: 3761 seconds
#
# Revision: 1
# Processed by: cddbd v1.5.2PL0 Copyright (c) Steve Scherf et al.
# Submitted via: audiograbber 1.83.01
#
DISCID=cc0eaf10
DTITLE=Laura bell - Longing for a place already gone
DYEAR=1900
DGENRE=country and western
TTITLE0=Fool moon
TTITLE1=Texas
TTITLE2=Between me and you
TTITLE3=just me
TTITLE4=fallin'
TTITLE5=designated drunk
TTITLE6=lovin' and lyin'
TTITLE7=i'll make the money
TTITLE8=the C word
TTITLE9=Long blonde hair
TTITLE10=good genes
TTITLE11=bad boy
TTITLE12=just pretend that you love me
TTITLE13=dancing with myself
TTITLE14=bonus track 15
TTITLE15=bonus track 16
EXTD=
EXTT0=
EXTT1=
EXTT2=
EXTT3=
EXTT4=
EXTT5=
EXTT6=
EXTT7=
EXTT8=
EXTT9=
EXTT10=
EXTT11=
EXTT12=
EXTT13=
EXTT14=
EXTT15=
PLAYORDER=
